<?xml version="1.0" encoding="utf-8"?>
<!-- Generator: Adobe Illustrator 22.1.0, SVG Export Plug-In . SVG Version: 6.00 Build 0)  -->
<svg version="1.1" id="レイヤー_1" xmlns="http://www.w3.org/2000/svg" xmlns:xlink="http://www.w3.org/1999/xlink" x="0px"
	 y="0px" viewBox="0 0 213 64" style="enable-background:new 0 0 213 64;" xml:space="preserve">
<style type="text/css">
	.st0{fill:#FFFFFF;}
	.st1{fill:#FA982D;}
	.st2{display:none;fill:#FA982D;}
	.st3{font-family:'TsukuBRdGothic-Bold-83pv-RKSJ-H';}
	.st4{font-size:34px;}
	.st5{letter-spacing:3;}
</style>
<g>
	<path class="st0" d="M4,62c-1.1,0-2-0.9-2-2V4c0-1.1,0.9-2,2-2h205c1.1,0,2,0.9,2,2v56c0,1.1-0.9,2-2,2H4z"/>
	<path class="st1" d="M209,4v56H4V4H209 M209,0H4C1.8,0,0,1.8,0,4v56c0,2.2,1.8,4,4,4h205c2.2,0,4-1.8,4-4V4C213,1.8,211.2,0,209,0
		L209,0z"/>
</g>
<text transform="matrix(1 0 0 1 15 45.2168)" class="st2 st3 st4 st5">本書の著者</text>
<g>
	<path class="st1" d="M33.6,40.4v5.8c0,0.9-0.8,1.4-1.6,1.4s-1.6-0.5-1.6-1.4v-5.8h-4c-1.1,0-1.5-0.7-1.5-1.4c0-0.7,0.5-1.5,1.5-1.5
		h4v-0.9l0.1-6.6c-2.6,4.4-6.4,8.6-10.7,11.9c-0.4,0.3-0.9,0.4-1.2,0.4c-1,0-1.7-0.7-1.7-1.6c0-0.5,0.3-1.1,0.9-1.5
		c4.4-3,8.3-7.1,11.2-12.1l-9.4,0.1h0c-1.1,0-1.5-0.7-1.5-1.4c0-0.8,0.5-1.6,1.6-1.6h10.8v-5.7c0-1,0.8-1.5,1.6-1.5s1.7,0.5,1.7,1.5
		v5.7h10.8c1,0,1.5,0.7,1.5,1.5c0,0.7-0.5,1.5-1.5,1.5h0L35,27.2c3,4.9,7.2,8.5,11.3,11.2c0.6,0.4,0.8,0.9,0.8,1.4
		c0,1-0.9,1.9-2,1.9c-0.4,0-0.8-0.1-1.2-0.4c-3.6-2.6-7.6-6.9-10.4-11.4l0.1,6.8v0.9h4c1,0,1.5,0.7,1.5,1.4c0,0.7-0.5,1.5-1.5,1.5
		H33.6z"/>
	<path class="st1" d="M55.9,36.3c-0.7,0-1.1-0.6-1.1-1.2c0-0.6,0.4-1.2,1.1-1.2l12,0v-1.3l-9,0c-0.8,0-1.2-0.5-1.2-1.1
		c0-0.6,0.4-1.2,1.2-1.2l9,0v-1.3c-2.7,0-5.5,0-8.2,0c-0.7,0-1.1-0.5-1.1-1.1s0.4-1.1,1.1-1.1h0c2.5,0,5.4,0.1,8.2,0.1v-1.4H56
		c-0.8,0-1.2-0.5-1.2-1.1c0-0.6,0.4-1.2,1.2-1.2h11.9V22c-3,0-5.9,0-8.2,0h0c-0.6,0-0.9-0.5-0.9-1.1c0-0.6,0.4-1.2,1.1-1.2
		c2.4,0,5.2,0,8.1,0v-1.3c0-0.9,0.8-1.4,1.5-1.4s1.5,0.4,1.5,1.4v1.3c1.7,0,3.4,0,5,0.1c2.2,0,3.5,0.8,3.5,2.5c0,0.3,0,0.6,0,0.9
		h3.4c0.9,0,1.3,0.6,1.3,1.3c0,0.6-0.4,1.3-1.3,1.3h-3.3c0,2.3-0.7,3.4-3.6,3.4c-1.7,0-3.3,0-5,0v1.3l9,0c0.8,0,1.2,0.5,1.2,1.1
		c0,0.6-0.4,1.2-1.2,1.2l-9,0v1.3l12.2,0c0.8,0,1.2,0.6,1.2,1.2c0,0.6-0.4,1.2-1.2,1.2H55.9z M69.8,47c-2.2,0-4.4,0-6.5-0.1
		c-3.6-0.1-3.7-1.8-3.7-4.8c0-2.4,0-4.5,3.6-4.6c1.9,0,4.5-0.1,6.9-0.1c2.1,0,4.1,0,5.7,0.1c3.5,0.1,3.5,2.7,3.5,4.4
		c0,3.2-0.3,4.8-3.5,4.9C73.8,47,71.8,47,69.8,47z M76.2,40.9c-0.1-0.8-0.4-1.1-1.3-1.1c-1.9,0-4-0.1-6.2-0.1c-1.7,0-3.4,0-4.8,0.1
		c-1,0-1.3,0.5-1.3,1.2v0.2h13.5V40.9z M76.3,43.1H62.8v0.4c0.1,1.2,0.1,1.2,6.6,1.2c6.8,0,6.8,0,6.9-1.2L76.3,43.1z M76.5,22.9
		c0-0.6-0.4-0.9-1.1-0.9c-1.3,0-2.9,0-4.5,0v1.3h5.5V22.9z M76.5,25.6h-5.6V27c1.5,0,3,0,4.5-0.1c0.6,0,1-0.4,1.1-1L76.5,25.6z"/>
	<path class="st1" d="M116,32.7c0-3.8-3-7-7.9-7c0,0,0,0-0.1,0c0.5,0.2,1,0.7,1,1.4c0,0.1,0,0.1,0,0.2c0,3.6-3.5,9.8-7.2,13.4
		c-0.9,0.8-1.7,1.2-2.5,1.2c-2.4,0-4.6-2.7-4.6-6.4c0-6.2,6.1-12.4,13.7-12.4c6.9,0,11.2,4.6,11.2,9.9c0,1.3-0.2,2.5-0.7,3.8
		c-3,7.5-12.2,8.6-12.7,8.6c-1.2,0-1.9-0.8-1.9-1.7c0-0.7,0.6-1.5,1.9-1.7C112.1,40.9,116,37.1,116,32.7z M106.2,25.8
		c-4.2,0.8-8.5,5.4-8.5,9.4c0,2.5,1.7,2.9,1.8,2.9c0.2,0,0.4-0.1,0.6-0.3c1-0.9,5.3-5.9,5.4-10.5C105.5,26.6,105.8,26.1,106.2,25.8z
		"/>
	<path class="st1" d="M146.8,33.4c-1.1,0.7-2.2,1.5-3.4,2.1c0.8,0,1.7,0,2.5,0c1.5,0,3.1,0,4.2,0.1c1.9,0.1,3.3,1.3,3.4,2.5
		c0.1,0.8,0.1,1.9,0.1,3.1c0,0.9,0,1.8-0.1,2.5c-0.1,1.6-1.4,2.9-3.5,3c-1.3,0.1-2.7,0.1-4.1,0.1c-6.9,0-8.5-0.1-8.5-4.2
		c0-1.4,0.1-3.2,0.2-4.3c-3,1.3-6.1,2.2-6.7,2.2c-0.9,0-1.5-0.8-1.5-1.5c0-0.6,0.4-1.2,1.2-1.4c3.9-0.9,7.8-2.3,11.4-4.3l-10.3,0.1
		c-0.9,0-1.3-0.6-1.3-1.3c0-0.7,0.4-1.3,1.3-1.3l9.4,0.1l0-2.2h-6.4c-0.9,0-1.3-0.6-1.3-1.3c0-0.6,0.4-1.3,1.3-1.3l6.4,0.1v-1.5
		c0-1,0.8-1.4,1.6-1.4c0.8,0,1.6,0.5,1.6,1.5v1.4l3.6,0h0c0.8,0,1.3,0.6,1.3,1.3c0,0.6-0.4,1.3-1.3,1.3h-3.6v2.2h1.7
		c2.7-1.9,5.1-4.2,7-6.9c0.3-0.4,0.6-0.5,1-0.5c0.8,0,1.7,0.8,1.7,1.6c0,0.3-0.1,0.5-0.3,0.7c-1.5,1.8-3.2,3.5-5.1,5l6.6-0.1
		c0.8,0,1.3,0.7,1.3,1.3c0,0.6-0.4,1.3-1.3,1.3L146.8,33.4z M150,22.5v1c0,0.9-0.8,1.4-1.6,1.4c-0.8,0-1.5-0.4-1.5-1.3v-1.1h-5.8v1
		c0,0.9-0.8,1.4-1.6,1.4s-1.5-0.4-1.5-1.3v-1.1h-6.7c-1.1,0-1.6-0.7-1.6-1.4c0-0.7,0.5-1.5,1.6-1.5h6.7v-1.4c0-0.9,0.8-1.3,1.6-1.3
		s1.6,0.4,1.6,1.3v1.4h5.8v-1.4c0-0.9,0.8-1.3,1.6-1.3c0.8,0,1.6,0.4,1.6,1.3v1.4h7.1c1,0,1.5,0.7,1.5,1.4c0,0.7-0.5,1.4-1.5,1.4
		H150z M140.4,42.1c0,0.3,0,0.7,0,1c0,1.3,0.5,1.4,5.1,1.4c4.7,0,5.1,0,5.1-2.4H140.4z M150.6,39.9c0-0.3,0-0.5,0-0.7
		c-0.1-1.3-0.7-1.3-4.4-1.3c-1.5,0-3,0-4.1,0c-1,0-1.5,0.7-1.6,1.3c0,0.2-0.1,0.4-0.1,0.7H150.6z"/>
	<path class="st1" d="M194.2,30.6l-9-0.1c-1.1,0.9-2.3,1.8-3.5,2.6c0.7,0,1.5,0,2.3,0c1.4,0,2.8,0,3.9,0.1c2,0.1,3.3,1.4,3.4,2.9
		c0.1,1.1,0.1,2.4,0.1,3.8c0,1.2,0,2.3-0.1,3.4c-0.1,1.8-1.4,3.3-3.6,3.4c-1.3,0.1-2.7,0.2-4,0.2c-1.6,0-3.2-0.1-4.6-0.2
		c-2.4-0.1-3.5-1.4-3.6-3.4c0-0.7,0-1.4,0-2.2c0-1.5,0-3.1,0.1-4.4c-1.4,0.7-6.7,3.2-7.9,3.2c-1,0-1.6-0.8-1.6-1.6
		c0-0.6,0.4-1.3,1.4-1.6c4.8-1.4,9.2-3.5,13.1-6.3l-11.6,0.1h0c-1.1,0-1.6-0.7-1.6-1.4c0-0.8,0.6-1.6,1.6-1.6l9.3,0l0-3.4h-6.2
		c-1.1,0-1.6-0.7-1.6-1.4c0-0.7,0.6-1.5,1.6-1.5l6.2,0v-2.8c0-1,0.8-1.4,1.6-1.4c0.8,0,1.7,0.5,1.7,1.4l0,2.8l4.8,0
		c1,0,1.5,0.7,1.5,1.5c0,0.7-0.5,1.4-1.5,1.4h-4.8v3.4h2.5c2.6-2.3,4.9-5,6.8-8.1c0.3-0.5,0.8-0.7,1.2-0.7c0.9,0,1.8,0.8,1.8,1.8
		c0,1.3-4.8,6.3-5.5,7l5.8,0c1,0,1.6,0.8,1.6,1.6C195.8,30,195.3,30.6,194.2,30.6L194.2,30.6z M178.6,41c0,0.5,0,1,0,1.5
		c0,1.4,0.5,1.6,4.9,1.6c4.5,0,4.8,0,4.8-3.1H178.6z M188.3,38.4c0-2.5-0.2-2.5-4.3-2.5c-1.3,0-2.7,0-3.7,0c-1.2,0-1.6,0.8-1.6,2.5
		H188.3z"/>
</g>
</svg>
