<?xml version="1.0" encoding="utf-8"?>
<!-- Generator: Adobe Illustrator 22.1.0, SVG Export Plug-In . SVG Version: 6.00 Build 0)  -->
<svg version="1.1" id="レイヤー_1" xmlns="http://www.w3.org/2000/svg" xmlns:xlink="http://www.w3.org/1999/xlink" x="0px"
	 y="0px" viewBox="0 0 248 64" style="enable-background:new 0 0 248 64;" xml:space="preserve">
<style type="text/css">
	.st0{fill:#FFFFFF;}
	.st1{fill:#FA982D;}
	.st2{display:none;fill:#FA982D;}
	.st3{font-family:'TsukuBRdGothic-Bold-83pv-RKSJ-H';}
	.st4{font-size:34px;}
	.st5{letter-spacing:3;}
</style>
<g>
	<path class="st0" d="M4,61.8c-1,0-1.8-0.8-1.8-1.8V4C2.2,3,3,2.2,4,2.2h240c1,0,1.8,0.8,1.8,1.8v56c0,1-0.8,1.8-1.8,1.8H4z"/>
	<path class="st1" d="M243.7,4.3v55.4H4.3V4.3H243.7 M244,0H4C1.8,0,0,1.8,0,4v56c0,2.2,1.8,4,4,4h240c2.2,0,4-1.8,4-4V4
		C248,1.8,246.2,0,244,0L244,0z"/>
</g>
<text transform="matrix(1 0 0 1 14.2998 45)" class="st2 st3 st4 st5">本書の章構成</text>
<g>
	<path class="st1" d="M32.9,40.1V46c0,0.9-0.8,1.4-1.6,1.4s-1.6-0.5-1.6-1.4v-5.8h-4c-1.1,0-1.5-0.7-1.5-1.4c0-0.7,0.5-1.5,1.5-1.5
		h4v-0.9l0.1-6.6c-2.6,4.4-6.4,8.6-10.7,11.9c-0.4,0.3-0.9,0.4-1.2,0.4c-1,0-1.7-0.7-1.7-1.6c0-0.5,0.3-1.1,0.9-1.5
		c4.4-3,8.3-7.1,11.2-12.1l-9.4,0.1h0c-1.1,0-1.5-0.7-1.5-1.4c0-0.8,0.5-1.6,1.6-1.6h10.8v-5.7c0-1,0.8-1.5,1.6-1.5s1.7,0.5,1.7,1.5
		v5.7h10.8c1,0,1.5,0.7,1.5,1.5c0,0.7-0.5,1.5-1.5,1.5h0L34.3,27c3,4.9,7.2,8.5,11.3,11.2c0.6,0.4,0.8,0.9,0.8,1.4
		c0,1-0.9,1.9-2,1.9c-0.4,0-0.8-0.1-1.2-0.4c-3.6-2.6-7.6-6.9-10.4-11.4l0.1,6.8v0.9h4c1,0,1.5,0.7,1.5,1.4c0,0.7-0.5,1.5-1.5,1.5
		H32.9z"/>
	<path class="st1" d="M55.2,36.1c-0.7,0-1.1-0.6-1.1-1.2c0-0.6,0.4-1.2,1.1-1.2l12,0v-1.3l-9,0c-0.8,0-1.2-0.5-1.2-1.1
		c0-0.6,0.4-1.2,1.2-1.2l9,0v-1.3c-2.7,0-5.5,0-8.2,0c-0.7,0-1.1-0.5-1.1-1.1s0.4-1.1,1.1-1.1h0c2.5,0,5.4,0.1,8.2,0.1v-1.4H55.3
		c-0.8,0-1.2-0.5-1.2-1.1c0-0.6,0.4-1.2,1.2-1.2h11.9v-1.3c-3,0-5.9,0-8.2,0h0c-0.6,0-0.9-0.5-0.9-1.1c0-0.6,0.4-1.2,1.1-1.2
		c2.4,0,5.2,0,8.1,0v-1.3c0-0.9,0.8-1.4,1.5-1.4s1.5,0.4,1.5,1.4v1.3c1.7,0,3.4,0,5,0.1c2.2,0,3.5,0.8,3.5,2.5c0,0.3,0,0.6,0,0.9
		h3.4c0.9,0,1.3,0.6,1.3,1.3c0,0.6-0.4,1.3-1.3,1.3h-3.3c0,2.3-0.7,3.4-3.6,3.4c-1.7,0-3.3,0-5,0v1.3l9,0c0.8,0,1.2,0.5,1.2,1.1
		c0,0.6-0.4,1.2-1.2,1.2l-9,0v1.3l12.2,0c0.8,0,1.2,0.6,1.2,1.2c0,0.6-0.4,1.2-1.2,1.2H55.2z M69.1,46.8c-2.2,0-4.4,0-6.5-0.1
		C59,46.6,59,44.9,59,41.9c0-2.4,0-4.5,3.6-4.6c1.9,0,4.5-0.1,6.9-0.1c2.1,0,4.1,0,5.7,0.1c3.5,0.1,3.5,2.7,3.5,4.4
		c0,3.2-0.3,4.8-3.5,4.9C73.1,46.8,71.1,46.8,69.1,46.8z M75.5,40.7c-0.1-0.8-0.4-1.1-1.3-1.1c-1.9,0-4-0.1-6.2-0.1
		c-1.7,0-3.4,0-4.8,0.1c-1,0-1.3,0.5-1.3,1.2v0.2h13.5V40.7z M75.6,42.9H62.1v0.4c0.1,1.2,0.1,1.2,6.6,1.2c6.8,0,6.8,0,6.9-1.2
		L75.6,42.9z M75.8,22.7c0-0.6-0.4-0.9-1.1-0.9c-1.3,0-2.9,0-4.5,0v1.3h5.5V22.7z M75.8,25.3h-5.6v1.4c1.5,0,3,0,4.5-0.1
		c0.6,0,1-0.4,1.1-1L75.8,25.3z"/>
	<path class="st1" d="M115.3,32.5c0-3.8-3-7-7.9-7c0,0,0,0-0.1,0c0.5,0.2,1,0.7,1,1.4c0,0.1,0,0.1,0,0.2c0,3.6-3.5,9.8-7.2,13.4
		c-0.9,0.8-1.7,1.2-2.5,1.2c-2.4,0-4.6-2.7-4.6-6.4c0-6.2,6.1-12.4,13.7-12.4c6.9,0,11.2,4.6,11.2,9.9c0,1.3-0.2,2.5-0.7,3.8
		c-3,7.5-12.2,8.6-12.7,8.6c-1.2,0-1.9-0.8-1.9-1.7c0-0.7,0.6-1.5,1.9-1.7C111.4,40.7,115.3,36.9,115.3,32.5z M105.5,25.6
		C101.2,26.5,97,31,97,35c0,2.5,1.7,2.9,1.8,2.9c0.2,0,0.4-0.1,0.6-0.3c1-0.9,5.3-5.9,5.4-10.5C104.8,26.4,105.1,25.9,105.5,25.6z"
		/>
	<path class="st1" d="M130.4,27.6c-1,0-1.5-0.7-1.5-1.4c0-0.6,0.5-1.3,1.5-1.3h7.5c-0.2-0.4-0.4-0.8-0.6-1.2
		c-0.1-0.2-0.2-0.4-0.2-0.5c0-0.4,0.3-0.6,0.7-0.8h-4.7c-1,0-1.4-0.7-1.4-1.4c0-0.6,0.5-1.3,1.4-1.3h8.6v-1.3c0-1.1,0.9-1.6,1.8-1.6
		s1.8,0.5,1.8,1.6v1.3h8.8c0.9,0,1.4,0.7,1.4,1.3c0,0.7-0.5,1.4-1.4,1.4h-4.7c0.2,0.2,0.4,0.5,0.4,0.8c0,0.2-0.3,1-0.6,1.7h7.7
		c0.9,0,1.4,0.7,1.4,1.3c0,0.7-0.5,1.4-1.4,1.4H130.4z M145.2,42.9l0,3.1c0,1.1-0.9,1.6-1.7,1.6s-1.7-0.5-1.7-1.6v-3.1h-11.4
		c-1,0-1.5-0.7-1.5-1.4c0-0.7,0.5-1.4,1.5-1.4h11.4l0-1.6c-7.7,0-8.4,0-8.4-4.9c0-2.8,0.2-4.6,3.4-4.7c1.8-0.1,4.1-0.1,6.6-0.1
		c2.4,0,5,0,7,0.1c3.1,0.1,3.2,2.6,3.2,4.5c0,2.6,0,5-3.4,5.1c-1.6,0.1-3.3,0.1-5.1,0.1v1.6h11.6c0.9,0,1.4,0.7,1.4,1.4
		c0,0.7-0.5,1.4-1.4,1.4H145.2z M136.4,34.6c0,0.2,0,0.4,0,0.5c0.1,0.8,0.5,1.1,1.4,1.1c1.7,0,4,0,6.4,0c1.8,0,3.5,0,5,0
		c0.8,0,1.3-0.3,1.3-1.1c0-0.2,0-0.3,0-0.5H136.4z M150.6,32.7c0-0.1,0-0.3,0-0.4c-0.1-1-0.3-1.1-1.2-1.1c-1.6-0.1-3.5-0.1-5.5-0.1
		c-2.3,0-4.5,0-6.1,0.1c-1,0-1.3,0.5-1.3,1.2v0.3H150.6z M139.6,22.3c0.3,0.2,1.3,1.3,1.6,2.5h4.7c0.3-0.6,0.5-1.4,0.6-2
		c0-0.2,0.1-0.4,0.2-0.5H139.6z"/>
	<path class="st1" d="M173.6,45.8c0,1-0.8,1.4-1.6,1.4c-0.8,0-1.6-0.5-1.6-1.4v0l0.1-12c-2.2,4.2-3,4.8-3.8,4.8
		c-0.9,0-1.6-0.7-1.6-1.6c0-0.4,0.1-0.7,0.4-1.1c1.6-1.8,3.8-5.2,5-8.4V27l-2.8,0.1h0c-1,0-1.5-0.7-1.5-1.5s0.5-1.5,1.5-1.5h2.7
		l-0.1-5.5v0c0-0.9,0.8-1.4,1.6-1.4c0.8,0,1.6,0.4,1.6,1.4v0c0,0-0.1,2.5-0.1,5.5h1.8c1,0,1.5,0.7,1.5,1.5c0,0.7-0.5,1.5-1.4,1.5
		c0,0,0,0-0.1,0l-1.8,0v2.7c0.2-0.1,0.4-0.1,0.6-0.1c0.7,0,3.3,1.9,3.3,3.2c0,0.9-0.7,1.7-1.5,1.7c-0.3,0-0.7-0.2-1-0.6
		c-0.5-0.7-0.9-1.4-1.4-1.8C173.5,37.3,173.6,45.8,173.6,45.8L173.6,45.8z M193.1,41.9l0,0.8c0,0,0,0.1,0,0.1c0,1.9-0.9,4.4-4.8,4.4
		c-1.7,0-3.3-0.1-3.3-1.7c0-0.7,0.4-1.4,1.3-1.4c0.1,0,0.2,0,0.3,0c0.6,0.1,1.2,0.2,1.7,0.2c1.1,0,1.8-0.4,1.8-2l0-0.5h-9.7V46
		c0,1-0.7,1.5-1.5,1.5c-0.7,0-1.5-0.5-1.5-1.5v-4.1H176c-0.9,0-1.3-0.6-1.3-1.3c0-0.6,0.4-1.3,1.3-1.3h1.7c0-1.8,0.1-3.5,0.1-5
		c0.1-1.4,0.9-2.8,3.4-2.9c0.8,0,1.8,0,2.8,0v-1.4l-6.7,0.1h0c-0.9,0-1.3-0.6-1.3-1.3c0-0.6,0.4-1.3,1.3-1.3l3.4,0v-1.4h-2.3
		c-0.8,0-1.2-0.5-1.2-1.1c0-0.5,0.4-1.1,1.2-1.1h2.3v-1.4l-2.9,0c-0.8,0-1.3-0.6-1.3-1.2c0-0.6,0.4-1.2,1.3-1.2h2.9v-1.6
		c0-0.9,0.7-1.3,1.5-1.3c0.7,0,1.4,0.4,1.4,1.3v1.7h3.6v-1.7c0-0.9,0.7-1.4,1.5-1.4c0.7,0,1.4,0.4,1.4,1.4v1.7l3.6,0
		c0.9,0,1.3,0.6,1.3,1.2c0,0.6-0.4,1.2-1.3,1.2l-3.6,0v1.5l2.2,0h0c0.7,0,1.2,0.5,1.2,1.1c0,0.5-0.4,1.1-1.2,1.1h0l-2.2,0v1.4l4.6,0
		c0.9,0,1.3,0.6,1.3,1.3c0,0.6-0.4,1.3-1.3,1.3h0l-7.9-0.1v1.4c1,0,1.9,0,2.8,0c2.5,0.1,3.4,1.4,3.4,2.9c0.1,1.3,0.1,3.6,0.1,5h1.9
		c0.9,0,1.3,0.6,1.3,1.3c0,0.6-0.4,1.3-1.3,1.3H193.1z M184,37.9h-3.4c0,0.5,0,1.1,0,1.6h3.4V37.9z M184,33.9c-2.4,0-3.2,0-3.3,1.3
		v0.4h3.3V33.9z M187.2,22.7h-3.6v1.5h3.6V22.7z M187.2,26.3h-3.6v1.4h3.6V26.3z M190.2,35.1c0-1.2-1-1.3-3.4-1.3v1.7h3.4
		L190.2,35.1z M190.3,37.9h-3.4v1.6h3.4V37.9z"/>
	<path class="st1" d="M230.7,25.8c-2.8,0-5.6-0.1-8.4-0.1c0.2,3.2,0.6,6.5,1.5,9.5c1.1-1.9,2-4,2.7-6.2c0.2-0.6,0.7-0.9,1.3-0.9
		c0.9,0,2,0.7,2,1.7c0,1.1-2.6,6.4-4.6,9.1c2,4,3.3,4.3,3.4,4.3c0.6,0,1.1-0.8,1.7-2.7c0.3-0.8,0.8-1.1,1.4-1.1
		c0.9,0,1.8,0.7,1.8,1.7c0,0.6-1.6,5.7-5,5.7c-1,0-3.3-0.5-5.6-5.2c-4.7,5-9.1,5.8-9.5,5.8c-1.1,0-1.7-0.8-1.7-1.6
		c0-0.7,0.4-1.3,1.3-1.6c3.5-1.1,6.3-3.1,8.4-5.8c-1.4-3.8-2.1-8.2-2.5-12.7c-2.8,0-5.6,0-8.3,0c-0.9,0-1.4,0.5-1.4,1.4v2
		c0.8,0,1.7,0,2.6,0c0.8,0,1.7,0,2.3,0c1.7,0,3.1,1.1,3.3,2.9c0,0.4,0.1,1.2,0.1,2c0,1.3-0.1,2.8-0.3,3.7c-0.9,2.8-3.4,3.7-5.5,3.7
		c-1.7,0-2.7-0.3-2.7-1.8c0-0.8,0.4-1.6,1.3-1.6c0.1,0,0.2,0,0.4,0c0.4,0.1,0.8,0.1,1.2,0.1c1.8,0,2.5-0.8,2.5-4
		c0-2.1,0-2.2-2.9-2.2c-0.7,0-1.5,0-2.2,0c-0.1,4.5-0.5,9.3-3.1,13.6c-0.5,0.8-1.2,1.1-1.9,1.1c-0.9,0-1.7-0.6-1.7-1.4
		c0-0.3,0.1-0.6,0.3-1c2.5-3.9,3-8.8,3-13.3c0-1.8-0.1-3.6-0.1-5.2c0,0,0-0.1,0-0.1c0-1.8,1.1-3.2,3.4-3.2c3,0,6.2,0,9.4,0
		c-0.1-1.1-0.2-3.9-0.2-4.1c0-0.9,0.9-1.4,1.8-1.4c0.8,0,1.7,0.5,1.7,1.5c0,1.3,0,2.6,0.1,4c3,0,5.8,0,8.6,0c0.9,0,1.4,0.8,1.4,1.6
		C232.1,25,231.6,25.8,230.7,25.8L230.7,25.8z M226.6,21.8c-1-0.9-2.2-1.5-2.9-1.8c-0.6-0.3-0.8-0.7-0.8-1.2c0-0.6,0.5-1.3,1.4-1.3
		c0.8,0,3.2,1.2,4.2,2c0.4,0.4,0.6,0.8,0.6,1.2c0,0.8-0.7,1.5-1.5,1.5C227.3,22.3,226.9,22.2,226.6,21.8z"/>
</g>
</svg>
