<?xml version="1.0" encoding="utf-8"?>
<!-- Generator: Adobe Illustrator 22.1.0, SVG Export Plug-In . SVG Version: 6.00 Build 0)  -->
<svg version="1.1" id="レイヤー_1" xmlns="http://www.w3.org/2000/svg" xmlns:xlink="http://www.w3.org/1999/xlink" x="0px"
	 y="0px" viewBox="0 0 213 64" style="enable-background:new 0 0 213 64;" xml:space="preserve">
<style type="text/css">
	.st0{fill:#FFFFFF;}
	.st1{fill:#FA982D;}
	.st2{display:none;fill:#FA982D;}
	.st3{font-family:'TsukuBRdGothic-Bold-83pv-RKSJ-H';}
	.st4{font-size:34px;}
	.st5{letter-spacing:3;}
</style>
<g>
	<path class="st0" d="M4,62c-1.1,0-2-0.9-2-2V4c0-1.1,0.9-2,2-2h205c1.1,0,2,0.9,2,2v56c0,1.1-0.9,2-2,2H4z"/>
	<path class="st1" d="M209,4v56H4V4H209 M209,0H4C1.8,0,0,1.8,0,4v56c0,2.2,1.8,4,4,4h205c2.2,0,4-1.8,4-4V4C213,1.8,211.2,0,209,0
		L209,0z"/>
</g>
<text transform="matrix(1 0 0 1 15 46)" class="st2 st3 st4 st5">本書の特長</text>
<g>
	<path class="st1" d="M33.6,41.1V47c0,0.9-0.8,1.4-1.6,1.4s-1.6-0.5-1.6-1.4v-5.8h-4c-1.1,0-1.5-0.7-1.5-1.4c0-0.7,0.5-1.5,1.5-1.5
		h4v-0.9l0.1-6.6c-2.6,4.4-6.4,8.6-10.7,11.9c-0.4,0.3-0.9,0.4-1.2,0.4c-1,0-1.7-0.7-1.7-1.6c0-0.5,0.3-1.1,0.9-1.5
		c4.4-3,8.3-7.1,11.2-12.1l-9.4,0.1h0c-1.1,0-1.5-0.7-1.5-1.4c0-0.8,0.5-1.6,1.6-1.6h10.8v-5.7c0-1,0.8-1.5,1.6-1.5s1.7,0.5,1.7,1.5
		v5.7h10.8c1,0,1.5,0.7,1.5,1.5c0,0.7-0.5,1.5-1.5,1.5h0L35,28c3,4.9,7.2,8.5,11.3,11.2c0.6,0.4,0.8,0.9,0.8,1.4c0,1-0.9,1.9-2,1.9
		c-0.4,0-0.8-0.1-1.2-0.4c-3.6-2.6-7.6-6.9-10.4-11.4l0.1,6.8v0.9h4c1,0,1.5,0.7,1.5,1.4c0,0.7-0.5,1.5-1.5,1.5H33.6z"/>
	<path class="st1" d="M55.9,37.1c-0.7,0-1.1-0.6-1.1-1.2c0-0.6,0.4-1.2,1.1-1.2l12,0v-1.3l-9,0c-0.8,0-1.2-0.5-1.2-1.1
		c0-0.6,0.4-1.2,1.2-1.2l9,0v-1.3c-2.7,0-5.5,0-8.2,0c-0.7,0-1.1-0.5-1.1-1.1s0.4-1.1,1.1-1.1h0c2.5,0,5.4,0.1,8.2,0.1v-1.4H56
		c-0.8,0-1.2-0.5-1.2-1.1c0-0.6,0.4-1.2,1.2-1.2h11.9v-1.3c-3,0-5.9,0-8.2,0h0c-0.6,0-0.9-0.5-0.9-1.1c0-0.6,0.4-1.2,1.1-1.2
		c2.4,0,5.2,0,8.1,0v-1.3c0-0.9,0.8-1.4,1.5-1.4s1.5,0.4,1.5,1.4v1.3c1.7,0,3.4,0,5,0.1c2.2,0,3.5,0.8,3.5,2.5c0,0.3,0,0.6,0,0.9
		h3.4c0.9,0,1.3,0.6,1.3,1.3c0,0.6-0.4,1.3-1.3,1.3h-3.3c0,2.3-0.7,3.4-3.6,3.4c-1.7,0-3.3,0-5,0v1.3l9,0c0.8,0,1.2,0.5,1.2,1.1
		c0,0.6-0.4,1.2-1.2,1.2l-9,0v1.3l12.2,0c0.8,0,1.2,0.6,1.2,1.2c0,0.6-0.4,1.2-1.2,1.2H55.9z M69.8,47.8c-2.2,0-4.4,0-6.5-0.1
		c-3.6-0.1-3.7-1.8-3.7-4.8c0-2.4,0-4.5,3.6-4.6c1.9,0,4.5-0.1,6.9-0.1c2.1,0,4.1,0,5.7,0.1c3.5,0.1,3.5,2.7,3.5,4.4
		c0,3.2-0.3,4.8-3.5,4.9C73.8,47.8,71.8,47.8,69.8,47.8z M76.2,41.7c-0.1-0.8-0.4-1.1-1.3-1.1c-1.9,0-4-0.1-6.2-0.1
		c-1.7,0-3.4,0-4.8,0.1c-1,0-1.3,0.5-1.3,1.2v0.2h13.5V41.7z M76.3,43.9H62.8v0.4c0.1,1.2,0.1,1.2,6.6,1.2c6.8,0,6.8,0,6.9-1.2
		L76.3,43.9z M76.5,23.7c0-0.6-0.4-0.9-1.1-0.9c-1.3,0-2.9,0-4.5,0v1.3h5.5V23.7z M76.5,26.3h-5.6v1.4c1.5,0,3,0,4.5-0.1
		c0.6,0,1-0.4,1.1-1L76.5,26.3z"/>
	<path class="st1" d="M116,33.5c0-3.8-3-7-7.9-7c0,0,0,0-0.1,0c0.5,0.2,1,0.7,1,1.4c0,0.1,0,0.1,0,0.2c0,3.6-3.5,9.8-7.2,13.4
		c-0.9,0.8-1.7,1.2-2.5,1.2c-2.4,0-4.6-2.7-4.6-6.4c0-6.2,6.1-12.4,13.7-12.4c6.9,0,11.2,4.6,11.2,9.9c0,1.3-0.2,2.5-0.7,3.8
		c-3,7.5-12.2,8.6-12.7,8.6c-1.2,0-1.9-0.8-1.9-1.7c0-0.7,0.6-1.5,1.9-1.7C112.1,41.7,116,37.9,116,33.5z M106.2,26.6
		c-4.2,0.8-8.5,5.4-8.5,9.4c0,2.5,1.7,2.9,1.8,2.9c0.2,0,0.4-0.1,0.6-0.3c1-0.9,5.3-5.9,5.4-10.5C105.5,27.4,105.8,26.9,106.2,26.6z
		"/>
	<path class="st1" d="M134.8,37.4c-2.9,1.3-3.5,1.5-4,1.5c-1,0-1.6-0.8-1.6-1.6c0-0.6,0.3-1.2,1.1-1.4c1.7-0.6,3.2-1.2,4.6-1.7v-5.9
		l-1.8,0.1c-0.6,3-1,4.6-2.7,4.6c-0.7,0-1.5-0.4-1.5-1.2c0-0.2,0.1-0.4,0.2-0.6c1.3-2.9,1.6-5.5,1.7-8.4c0-0.9,0.8-1.4,1.5-1.4
		s1.5,0.5,1.5,1.4c0,0.1,0,0.1,0,0.2c-0.1,0.7-0.2,1.6-0.3,2.4h1.4v-5.6c0-1,0.8-1.5,1.6-1.5c0.8,0,1.6,0.5,1.6,1.5l0,5.6h2.4
		c1,0,1.5,0.7,1.5,1.5s-0.5,1.5-1.5,1.5h0h-2.4l0,4.5c2.2-1.1,2.3-1.2,2.6-1.2c0.7,0,1.2,0.6,1.2,1.4c0,1-0.4,1.2-3.8,2.9l0,11
		c0,1-0.8,1.5-1.6,1.5s-1.6-0.5-1.6-1.5L134.8,37.4z M141.9,31.2c-1,0-1.5-0.7-1.5-1.4c0-0.7,0.5-1.4,1.5-1.4h6v-3.1h-4.5
		c-1,0-1.5-0.7-1.5-1.4c0-0.7,0.5-1.4,1.5-1.4h4.4v-3c0-1,0.8-1.5,1.6-1.5c0.8,0,1.6,0.5,1.6,1.5v3h5c1,0,1.5,0.7,1.5,1.4
		c0,0.7-0.5,1.4-1.5,1.4h-5.1v3.1h6.9c1,0,1.4,0.7,1.4,1.4c0,0.7-0.5,1.4-1.4,1.4H141.9z M154.6,37l0,2.1l0.1,4.8c0,0,0,0.1,0,0.1
		c0,1.9-1.1,4.2-5,4.2c-3,0-3.6-0.7-3.6-1.8c0-0.8,0.5-1.6,1.5-1.6c0.1,0,0.2,0,0.3,0c0.7,0.1,1.3,0.2,1.8,0.2c1,0,1.7-0.4,1.7-1.8
		l0-6.2h-9.6c-1,0-1.5-0.7-1.5-1.4c0-0.7,0.5-1.4,1.5-1.4h9.6l0-1.3c0-0.9,0.8-1.4,1.6-1.4c0.8,0,1.6,0.5,1.6,1.4l0,1.3h3.6
		c1,0,1.4,0.7,1.4,1.4c0,0.7-0.5,1.4-1.4,1.4H154.6z M146.5,42.8c-0.9-1.2-2.1-2-2.8-2.4c-0.5-0.3-0.7-0.6-0.7-1.1
		c0-0.7,0.6-1.4,1.6-1.4c0.9,0,4.7,2,4.7,3.7c0,1-0.7,1.8-1.6,1.8C147.2,43.5,146.8,43.2,146.5,42.8z"/>
	<path class="st1" d="M183.1,35.7c0.4,1.3,1.1,2.5,1.8,3.5c1.8-0.7,3.5-1.6,5.2-2.8c0.3-0.2,0.6-0.3,0.9-0.3c0.9,0,1.7,0.8,1.7,1.7
		c0,0.6,0,1.5-5.8,3.4c2.1,1.7,4.9,2.8,8.2,3.3c0.9,0.1,1.4,0.9,1.4,1.6c0,0.9-0.6,1.8-1.8,1.8c-0.1,0-11.1-0.7-14.9-12.5h-3.5v7.8
		c1.5-0.5,3-1,4.1-1.5c0.3-0.1,0.5-0.2,0.7-0.2c0.9,0,1.6,0.7,1.6,1.4c0,0.5-0.3,1.1-1.2,1.5c-5,2.1-11.3,3.6-12.2,3.6
		c-1.2,0-1.8-0.8-1.8-1.7c0-0.7,0.5-1.4,1.5-1.6c1.3-0.2,2.7-0.4,4-0.7v-8.6h-4.7c-1,0-1.5-0.7-1.5-1.4c0-0.7,0.5-1.5,1.5-1.5h4.7
		c0-1.1,0-2.2,0-3.4c0-1.9,0-3.8,0.1-5.5c0.1-2.9,1.3-4.4,4.4-4.4c2.5,0,5.3-0.1,8.1-0.1c1.8,0,3.6,0,5.2,0.1c1.1,0,1.6,0.7,1.6,1.4
		c0,0.7-0.5,1.5-1.6,1.5c0,0,0,0-0.1,0c-1.8,0-3.9-0.1-5.9-0.1c-2.4,0-4.9,0-6.9,0.1c-1.2,0-1.6,0.7-1.6,1.7v0.1h13.4
		c0.9,0,1.3,0.6,1.3,1.2c0,0.6-0.4,1.3-1.3,1.3h-13.4v1.9h13.4c0.9,0,1.3,0.6,1.3,1.2c0,0.6-0.4,1.3-1.3,1.3h-13.4v1.9h18.6
		c1,0,1.4,0.7,1.4,1.4c0,0.7-0.4,1.4-1.4,1.4H183.1z"/>
</g>
</svg>
