<svg xmlns="http://www.w3.org/2000/svg" viewBox="0 0 512 512"><defs><style>.cls-1{fill:#fff;}</style></defs><title>アセット 1</title><g id="レイヤー_2" data-name="レイヤー 2"><g id="レイヤー_1-2" data-name="レイヤー 1"><path class="cls-1" d="M256,0C114.61,0,0,114.61,0,256S114.61,512,256,512,512,397.39,512,256,397.39,0,256,0Zm4.93,217.39.25,0a51.29,51.29,0,0,1,87.34-46.76,102.36,102.36,0,0,0,27.13-9.52c1.78-.86,3.57-1.72,5.32-2.67A51.17,51.17,0,0,1,364.83,182a45.92,45.92,0,0,1-6.32,4.34l.45-.07c-.15.1-.27.22-.42.31a102.51,102.51,0,0,0,24.11-5.94c1.71-.59,3.42-1.19,5.12-1.85a104.33,104.33,0,0,1-25.37,26.26q.15,3.3.15,6.63c0,67.74-51.56,145.84-145.85,145.84a145,145,0,0,1-78.57-23,103.08,103.08,0,0,0,64.61-13.62A107.89,107.89,0,0,0,214,313.5l-.28,0a3.06,3.06,0,0,1,.29-.21,51.26,51.26,0,0,1-44.58-27.75,50.65,50.65,0,0,1-3.16-7.83,48.17,48.17,0,0,0,19.37-.17c1.2-.16,2.4-.3,3.58-.5-.15,0-.29-.1-.44-.13l.49-.1a51.29,51.29,0,0,1-41.12-50.26c0-.2,0-.39,0-.58l0-.06a50.94,50.94,0,0,0,18.23,5.94c1.61.27,3.22.52,4.83.66-.11-.08-.2-.17-.31-.24.15,0,.3,0,.45,0A51,51,0,0,1,154,167c.54-1,1-2.08,1.64-3.07a145.54,145.54,0,0,0,92.8,52.15c4.16.6,8.33,1.14,12.55,1.39A.22.22,0,0,1,260.93,217.39Z"/></g></g></svg>