<svg id="wifi" xmlns="http://www.w3.org/2000/svg" viewBox="0 0 300 300"><defs><style>.cls-1{fill:#527acc;}</style></defs><title>service-wifi</title><path class="cls-1" d="M79.78,103.58l14,14a79.66,79.66,0,0,1,112.53,0l14-14A99.41,99.41,0,0,0,79.78,103.58Z"/><path class="cls-1" d="M150,45a127.91,127.91,0,0,1,91.05,37.71L255,68.8a148.49,148.49,0,0,0-210,0l13.95,14A128,128,0,0,1,150,45Z"/><path class="cls-1" d="M113.77,137.57l13.94,14a31.58,31.58,0,0,1,44.57,0l13.95-14A51.3,51.3,0,0,0,113.77,137.57Z"/><circle class="cls-1" cx="150" cy="183.21" r="20.69"/><path class="cls-1" d="M62.39,221.5H75.65l4.77,25.28,7-25.28h13.21l7,25.24,4.78-25.24h13.18l-9.95,45.16H101.93L94,238.22l-7.89,28.44H72.44Z"/><path class="cls-1" d="M131,221.5h12.54V230H131Zm0,12.44h12.54v32.72H131Z"/><path class="cls-1" d="M150.43,245.34h18.23V255H150.43Z"/><path class="cls-1" d="M176,221.5H210.5v9.7H190v7.89h17.5v9.11H190v18.46H176Z"/><path class="cls-1" d="M218.9,221.5h12.54V230H218.9Zm0,12.44h12.54v32.72H218.9Z"/></svg>