<svg xmlns="http://www.w3.org/2000/svg" viewBox="0 0 300 300"><defs><style>.cls-1{fill:#527acc;}</style></defs><title>service-rec</title><g id="rec"><path class="cls-1" d="M185.5,239.47q4-4.07,11.37-4.06,5.74,0,9,2.33a13.59,13.59,0,0,1,4.89,7.14l-8.3,1.85a7.37,7.37,0,0,0-.91-2,5.47,5.47,0,0,0-1.93-1.66,6,6,0,0,0-7.46,2q-1.29,1.9-1.29,6c0,3.37.52,5.69,1.54,6.94a6.08,6.08,0,0,0,8.4.36,9.34,9.34,0,0,0,2-4.4l8.24,2.49a15.14,15.14,0,0,1-2.61,5.79A11.39,11.39,0,0,1,204,265.7a16.59,16.59,0,0,1-6.74,1.18,19.6,19.6,0,0,1-8.11-1.44,12.84,12.84,0,0,1-5.42-5.07,17.12,17.12,0,0,1-2.29-9.29Q181.48,243.52,185.5,239.47Z"/><polygon class="cls-1" points="151.86 235.93 177.06 235.93 177.06 242.43 161.29 242.43 161.29 247.26 175.92 247.26 175.92 253.47 161.29 253.47 161.29 259.47 177.52 259.47 177.52 266.36 151.86 266.36 151.86 235.93"/><path class="cls-1" d="M100.39,239.67a11.48,11.48,0,1,1-11.47,11.47A11.46,11.46,0,0,1,100.39,239.67Z"/><path class="cls-1" d="M144.32,257.54a12,12,0,0,0-1.32-1.89,9.73,9.73,0,0,0-1.51-1.6,9.6,9.6,0,0,0-2.44-1.12,11.5,11.5,0,0,0,3.3-1.2A8.91,8.91,0,0,0,145,239.45a7.09,7.09,0,0,0-3.72-2.77,22.62,22.62,0,0,0-6.66-.75H118.94v30.43h9.44V254h.83a4,4,0,0,1,2.31.71,7.27,7.27,0,0,1,1.7,2.34l5,9.3h10.63Zm-8-10.65a2.45,2.45,0,0,1-1.52,1,14.12,14.12,0,0,1-2.49.42h-4v-6.18h4.13a5.69,5.69,0,0,1,3.51.78,2.83,2.83,0,0,1,.94,2.27A2.78,2.78,0,0,1,136.36,246.89Z"/><path class="cls-1" d="M182.31,92.54V57.59a32.32,32.32,0,1,0-64.63,0v35H87.45v38.15a62.63,62.63,0,0,0,54.05,61.95V207H117.74v17h64.52V207H158.5V192.64a62.63,62.63,0,0,0,54.05-61.95V92.54Zm13.23,38.15a45.54,45.54,0,0,1-91.08,0V109.55h13.22v24a32.32,32.32,0,1,0,64.63,0v-24h13.23Z"/></g></svg>