<svg xmlns="http://www.w3.org/2000/svg" viewBox="0 0 300 300"><defs><style>.cls-1{fill:#527acc;}</style></defs><title>service-drink</title><g id="drink"><path class="cls-1" d="M214.32,43.19a8.59,8.59,0,1,0,0-17.18H176a8.59,8.59,0,0,0-8.36,6.59l-7,29.21h-75a8.6,8.6,0,0,0-8.58,9.1l11.45,195A8.59,8.59,0,0,0,97.13,274H192.7a8.59,8.59,0,0,0,8.58-8.09l11.46-195a8.6,8.6,0,0,0-8.58-9.1H178.32l4.45-18.62ZM156.53,79l-4.46,18.62H95.88L94.79,79ZM184.6,256.81H105.24l-8.35-142h96.05ZM195.05,79,194,97.62H169.74L174.2,79ZM107,125h24V247H114Z"/></g></svg>