<svg xmlns="http://www.w3.org/2000/svg" viewBox="0 0 300 300"><defs><style>.cls-1{fill:#527acc;}</style></defs><title>service-whiteboard</title><g id="whiteboard"><path class="cls-1" d="M277.11,166.92a4.08,4.08,0,0,0-2.92-1.22H267.3V43.81a4.09,4.09,0,0,0-1.23-2.93,4.19,4.19,0,0,0-2.92-1.21H36.85a4.2,4.2,0,0,0-2.93,1.21,4.12,4.12,0,0,0-1.22,2.93V165.7H25.8a4.15,4.15,0,0,0-4.13,4.15V189.4a4.15,4.15,0,0,0,4.13,4.14h93.3l-3.84,65.21a4.31,4.31,0,0,0,4.34,4.58h59.83a4.3,4.3,0,0,0,4.33-4.58l-3.83-65.21h94.26a4.08,4.08,0,0,0,2.92-1.22,4.14,4.14,0,0,0,1.22-2.92V169.85A4.17,4.17,0,0,0,277.11,166.92ZM47,53.94H253V165.7H47ZM171.77,236.57H127.25l2.54-43h39.45Zm94.28-55.31H33.94V178H266.05Z"/></g></svg>