<svg xmlns="http://www.w3.org/2000/svg" viewBox="0 0 300 80"><defs><style>.cls-1{fill:#fff;}.cls-2{fill:#334c80;}.cls-3{fill:none;stroke:#fff;stroke-linecap:round;stroke-linejoin:round;stroke-width:1.13px;}.cls-4{fill:#527acc;}.cls-5{fill:#a5d1ff;}</style></defs><title>site-logo_w</title><g id="rental_space_LS7" data-name="rental space LS7"><path class="cls-1" d="M19.49,35v2.4H15.65q-2.88,0-2.88,2.4V51.29H8V39.75q0-4.8,4.33-4.8Z"/><path class="cls-1" d="M25.74,51.29c-2.88,0-4.33-1.61-4.33-4.81V39.75c0-3.2,1.45-4.8,4.33-4.8h4.8q4.34,0,4.33,4.8v4.33H26.22v2.4q0,2.4,1.92,2.4h6.25v2.41Zm.48-11.54v1.93h3.84V39.75q0-2.4-1.92-2.4T26.22,39.75Z"/><path class="cls-1" d="M36.79,35h9.13q4.32,0,4.32,4.8V51.29h-4.8V39.75c0-1.6-1-2.4-2.89-2.4h-1V51.29h-4.8Z"/><path class="cls-1" d="M54.09,27.74h4.8V35h6.73v2.4H58.89v9.13q0,2.4,1.92,2.4h4.81v2.41H58.41c-2.88,0-4.32-1.61-4.32-4.81V37.35H52.16V35h1.93Z"/><path class="cls-1" d="M71.86,51.29c-2.88,0-4.32-1.61-4.32-4.81v-1c0-3.2,1.44-4.81,4.32-4.81h4.33v-1c0-1.6-1-2.4-2.89-2.4H68V35h8.65Q81,35,81,39.75V51.29Zm2.41-8.17c-1.29,0-1.93.8-1.93,2.4v1c0,1.6.64,2.4,1.93,2.4h1.92V43.12Z"/><path class="cls-1" d="M82.91,27.74v-2.4h6.73v26h-4.8V27.74Z"/><path class="cls-1" d="M109.1,51.29h-8.65V48.88h6.25q1.92,0,1.92-2.16c0-1.57-.64-2.36-1.92-2.36h-2.41q-4.32,0-4.32-4.85Q100,35,104.29,35h8.65v2.4H106.7q-1.92,0-1.92,2.16c0,1.63.64,2.45,1.92,2.45h2.4c2.88,0,4.32,1.58,4.32,4.76S112,51.29,109.1,51.29Z"/><path class="cls-1" d="M124.47,35q4.34,0,4.33,4.8v6.73c0,3.2-1.44,4.81-4.33,4.81h-4.32v9.6h-4.8V35Zm-2.4,13.93q1.92,0,1.92-2.4V39.75q0-2.4-1.92-2.4h-1.92V48.88Z"/><path class="cls-1" d="M135,51.29c-2.88,0-4.32-1.61-4.32-4.81v-1c0-3.2,1.44-4.81,4.32-4.81h4.33v-1q0-2.4-2.88-2.4H131.2V35h8.65q4.32,0,4.32,4.8V51.29Zm2.41-8.17q-1.92,0-1.92,2.4v1q0,2.4,1.92,2.4h1.92V43.12Z"/><path class="cls-1" d="M150.42,51.29c-2.88,0-4.32-1.61-4.32-4.81V39.75q0-4.8,4.32-4.8h8.65v2.4h-6.25q-1.92,0-1.92,2.4v6.73q0,2.4,1.92,2.4h6.25v2.41Z"/><path class="cls-1" d="M165.31,51.29c-2.88,0-4.32-1.61-4.32-4.81V39.75q0-4.8,4.32-4.8h4.81q4.32,0,4.32,4.8v4.33h-8.65v2.4c0,1.6.65,2.4,1.93,2.4H174v2.41Zm.48-11.54v1.93h3.85V39.75q0-2.4-1.92-2.4C166.44,37.35,165.79,38.15,165.79,39.75Z"/><path class="cls-1" d="M184.77,51.29V25.34h4l5,15.45,4.93-15.45h4v26h-4.76V35.75l-4.17,13-4.2-13V51.29Z"/><path class="cls-1" d="M208.92,51.29c-2.89,0-4.33-1.61-4.33-4.81V39.75q0-4.8,4.33-4.8h4.32V25.34h4.81v26Zm2.4-13.94q-1.92,0-1.92,2.4v6.73q0,2.4,1.92,2.4h1.92V37.35Z"/><path class="cls-1" d="M220,51.29V25.34h3.84L231.5,42V25.34h4.8v26h-3.84l-7.69-16.7v16.7Z"/></g><g id="マーク"><polygon class="cls-2" points="276.36 18.92 269.74 12.31 242.62 39.44 264.86 61.68 270.63 55.91 255 40.28 276.36 18.92"/><polygon class="cls-3" points="276.36 18.92 269.74 12.31 242.62 39.44 264.86 61.68 270.63 55.91 255 40.28 276.36 18.92"/><polygon class="cls-4" points="298 40.56 276.36 18.92 270.3 24.98 285.63 40.31 264.56 61.38 270.87 67.69 298 40.56"/><polygon class="cls-3" points="298 40.56 276.36 18.92 270.3 24.98 285.63 40.31 264.56 61.38 270.87 67.69 298 40.56"/><path class="cls-5" d="M268.51,26.77,256.79,38.49a2.58,2.58,0,0,0,.08,3.65l11.6,11.6a2.58,2.58,0,0,0,3.65.08L283.84,42.1a2.58,2.58,0,0,0-.08-3.65l-11.6-11.6A2.58,2.58,0,0,0,268.51,26.77Z"/><path class="cls-3" d="M268.51,26.77,256.79,38.49a2.58,2.58,0,0,0,.08,3.65l11.6,11.6a2.58,2.58,0,0,0,3.65.08L283.84,42.1a2.58,2.58,0,0,0-.08-3.65l-11.6-11.6A2.58,2.58,0,0,0,268.51,26.77Z"/></g></svg>