<svg xmlns="http://www.w3.org/2000/svg" width="61.74" height="60" viewBox="0 0 61.74 60"><title>icon-schedule</title><rect x="15.24" width="6.28" height="13.89" rx="2.42" fill="#8c7361"/><rect x="40.21" width="6.28" height="13.89" rx="2.42" fill="#8c7361"/><path d="M57.88,4.44H48v7.48a3.51,3.51,0,0,1-3.51,3.51H42.18a3.51,3.51,0,0,1-3.51-3.51V4.44H23.07v7.48a3.51,3.51,0,0,1-3.51,3.51H17.21a3.51,3.51,0,0,1-3.51-3.51V4.44H3.86A3.86,3.86,0,0,0,0,8.3V56.14A3.86,3.86,0,0,0,3.86,60h54a3.86,3.86,0,0,0,3.86-3.86V8.3A3.86,3.86,0,0,0,57.88,4.44Zm0,51.7h-54v-33h54Z" fill="#8c7361"/><path d="M18.07,31.27H12.89a2.28,2.28,0,0,0-2.28,2.28v2.69a2.29,2.29,0,0,0,2.28,2.28h5.18a2.29,2.29,0,0,0,2.28-2.28V33.55A2.28,2.28,0,0,0,18.07,31.27Z" fill="#8c7361"/><path d="M33.46,31.27H28.28A2.28,2.28,0,0,0,26,33.55v2.69a2.29,2.29,0,0,0,2.28,2.28h5.18a2.29,2.29,0,0,0,2.28-2.28V33.55A2.28,2.28,0,0,0,33.46,31.27Z" fill="#8c7361"/><path d="M48.85,31.27H43.66a2.29,2.29,0,0,0-2.28,2.28v2.69a2.29,2.29,0,0,0,2.28,2.28h5.19a2.29,2.29,0,0,0,2.28-2.28V33.55A2.29,2.29,0,0,0,48.85,31.27Z" fill="#8c7361"/><path d="M18.07,42.92H12.89a2.28,2.28,0,0,0-2.28,2.28v2.68a2.28,2.28,0,0,0,2.28,2.28h5.18a2.28,2.28,0,0,0,2.28-2.28V45.2A2.28,2.28,0,0,0,18.07,42.92Z" fill="#8c7361"/><path d="M33.46,42.92H28.28A2.28,2.28,0,0,0,26,45.2v2.68a2.28,2.28,0,0,0,2.28,2.28h5.18a2.28,2.28,0,0,0,2.28-2.28V45.2A2.28,2.28,0,0,0,33.46,42.92Z" fill="#8c7361"/><path d="M48.85,42.92H43.66a2.29,2.29,0,0,0-2.28,2.28v2.68a2.29,2.29,0,0,0,2.28,2.28h5.19a2.29,2.29,0,0,0,2.28-2.28V45.2A2.29,2.29,0,0,0,48.85,42.92Z" fill="#8c7361"/></svg>