<svg xmlns="http://www.w3.org/2000/svg" width="60" height="60" viewBox="0 0 60 60"><title>icon-about</title><path d="M59.33,16.65l-16-16a2.26,2.26,0,0,0-3.21,0l-2,2a2.26,2.26,0,0,0,0,3.21l1,1-5.23,5.24L27.73,6a2.41,2.41,0,0,0-3.39,0L22.49,7.84a2.39,2.39,0,0,0,0,3.39L26,14.77.72,40.08a2.47,2.47,0,0,0,0,3.49l6.11,6.11L1.6,54.91A2.47,2.47,0,1,0,5.09,58.4l5.23-5.23,6.11,6.11a2.47,2.47,0,0,0,3.49,0L45.23,34l3.54,3.54a2.39,2.39,0,0,0,3.39,0L54,35.66a2.41,2.41,0,0,0,0-3.39l-6.16-6.16,5.24-5.23,1,1a2.26,2.26,0,0,0,3.21,0l2-2A2.26,2.26,0,0,0,59.33,16.65ZM18.18,54,6,41.82l4.31-4.3,3.8,3.8a2.18,2.18,0,0,0,3.1,0l.39-.39a2.18,2.18,0,0,0,0-3.1L13.76,34l2.68-2.69,3.8,3.81a2.18,2.18,0,0,0,3.1,0l.4-.39a2.2,2.2,0,0,0,0-3.1l-3.81-3.81,9.59-9.59.87.87h0l1.72,1.73,9.62,9.62Z" fill="#967a71"/></svg>