<svg xmlns="http://www.w3.org/2000/svg" width="65.57" height="60" viewBox="0 0 65.57 60"><title>icon-consultation</title><path d="M65.57,42.22A16.18,16.18,0,0,0,53.75,26.66,20.33,20.33,0,0,0,34.35,0h-14A20.38,20.38,0,0,0,8.59,37a11.06,11.06,0,0,1-4.28,4.47.83.83,0,0,0-.46.8.81.81,0,0,0,.59.71,16.18,16.18,0,0,0,4.27.56A24.52,24.52,0,0,0,19.4,40.78c.33,0,.67,0,1,0h4.73c0,.46-.07.93-.07,1.41A16.18,16.18,0,0,0,41.23,58.39H49.1A17.87,17.87,0,0,0,56.25,60a13.51,13.51,0,0,0,3.62-.48A4.7,4.7,0,0,0,62.26,52,16.15,16.15,0,0,0,65.57,42.22Zm-56.86.53h0Zm-.12-4.26c.38-.55.74-1.13,1.07-1.72a20.5,20.5,0,0,1-1.9-1.43,20.5,20.5,0,0,0,1.9,1.43C9.33,37.36,9,37.94,8.59,38.49Zm6.76-14.16a3.73,3.73,0,1,1,3.73-3.73A3.73,3.73,0,0,1,15.35,24.33Zm23.37-7.46A3.73,3.73,0,1,1,35,20.6,3.73,3.73,0,0,1,38.72,16.87ZM23.31,20.6A3.73,3.73,0,1,1,27,24.33,3.73,3.73,0,0,1,23.31,20.6ZM60.88,42.22a11.48,11.48,0,0,1-5.19,9.58A7.47,7.47,0,0,0,58.63,55a8.86,8.86,0,0,1-2.38.32,14.07,14.07,0,0,1-6.16-1.64l-.69,0H41.23A11.52,11.52,0,0,1,29.75,42.22h0a10.88,10.88,0,0,1,.1-1.41h0A11.44,11.44,0,0,1,31.62,36h0c.16-.24.33-.47.5-.7l.13-.17c.16-.2.32-.38.49-.57l.22-.24c.15-.16.32-.32.48-.47l.3-.27.48-.39.36-.27a5.25,5.25,0,0,1,.49-.33l.42-.26L36,32l.49-.23.48-.22.54-.2c.16-.05.31-.11.47-.15s.41-.11.61-.16L39,31c.24-.05.48-.08.72-.11l.37-.05a10.55,10.55,0,0,1,1.13-.06H49.4a11.9,11.9,0,0,1,1.2.06h0a10.63,10.63,0,0,1,1.13.18h0a11.51,11.51,0,0,1,9.12,11.23Z" fill="#8c7361"/></svg>