<svg height="15.8mm" viewBox="0 0 270.91 44.8" width="95.57mm" xmlns="http://www.w3.org/2000/svg"><g fill="#54a337"><path d="m29.8 39.5a11.89 11.89 0 0 1 -4.9 4.1 14.82 14.82 0 0 1 -5.9 1.2c-6.1 0-10.8-1.6-14.1-4.9s-4.9-7.9-4.9-14a29.37 29.37 0 0 1 1.6-9.9 23.76 23.76 0 0 1 4.7-8.2 21.93 21.93 0 0 1 17.2-7.8 27.08 27.08 0 0 1 7.1.9 16.46 16.46 0 0 1 5.8 2.8 13.85 13.85 0 0 1 3.9 4.7 14.51 14.51 0 0 1 1.4 6.8h-9.4c-.1-2.6-.9-4.5-2.5-5.6a10.37 10.37 0 0 0 -6.2-1.6 12.8 12.8 0 0 0 -6.3 1.6 13.89 13.89 0 0 0 -4.4 4.3 18.87 18.87 0 0 0 -2.5 5.8 22.7 22.7 0 0 0 -.8 6.3 14.21 14.21 0 0 0 .6 4.2 12.65 12.65 0 0 0 1.7 3.5 8.86 8.86 0 0 0 3 2.4 9.86 9.86 0 0 0 4.4.9 12.72 12.72 0 0 0 4.6-.7 12.46 12.46 0 0 0 3.4-1.9 10.91 10.91 0 0 0 2.3-2.9 18.81 18.81 0 0 0 1.5-3.8h-9.9l1.5-7h18.2l-5 23.1h-6v-4.4h-.1z"/><path d="m45.1 24a19.91 19.91 0 0 1 3.5-6.2 16.85 16.85 0 0 1 5.6-4.2 17.79 17.79 0 0 1 7.4-1.5 22.14 22.14 0 0 1 5.9.8 11.89 11.89 0 0 1 4.6 2.4 10.41 10.41 0 0 1 3 4.1 14.68 14.68 0 0 1 1 5.8 24.35 24.35 0 0 1 -1.2 7.7 17 17 0 0 1 -9.3 10.3 18.41 18.41 0 0 1 -7.6 1.5c-4.3 0-7.8-1.1-10.3-3.3s-3.9-5.6-3.9-10a26.76 26.76 0 0 1 1.3-7.4zm7.7 10.1a5.9 5.9 0 0 0 1.2 2.2 5.81 5.81 0 0 0 4.5 2.1 6.29 6.29 0 0 0 4.1-1.3 10.78 10.78 0 0 0 2.8-3.2 15.21 15.21 0 0 0 1.6-4.2 16.25 16.25 0 0 0 .5-4.3 8.46 8.46 0 0 0 -1.4-5c-.9-1.2-2.6-1.9-4.8-1.9a6.48 6.48 0 0 0 -4.1 1.3 10.78 10.78 0 0 0 -2.8 3.2 15.21 15.21 0 0 0 -1.6 4.2 16 16 0 0 0 -.5 4.2 10.81 10.81 0 0 0 .5 2.73z"/><path d="m90.1 34.83-2 9.2h-9.4l1.9-9.2zm-2-3.6h-4.2l1.5-18.4 2.5-11.6h9.1l-2.5 11.6z"/><path d="m138.61 10.8a7.56 7.56 0 0 0 -5.26-1.91 12.15 12.15 0 0 0 -6 1.53 13.31 13.31 0 0 0 -4.21 4.11 18 18 0 0 0 -2.39 5.54 21.74 21.74 0 0 0 -.76 6 13.71 13.71 0 0 0 .57 4 12.36 12.36 0 0 0 1.63 3.34 8.48 8.48 0 0 0 2.81 2.32 9.49 9.49 0 0 0 4.21.86 8.11 8.11 0 0 0 3.43-.67 11.24 11.24 0 0 0 2.87-1.81 11 11 0 0 0 2.1-2.58 9.05 9.05 0 0 0 1.15-3.06h9a34.49 34.49 0 0 1 -3.25 7.26 19.18 19.18 0 0 1 -4.2 4.87 15 15 0 0 1 -5.16 2.68 21.13 21.13 0 0 1 -6.11.86c-5.83 0-10.32-1.53-13.47-4.68s-4.68-7.55-4.68-13.38a28 28 0 0 1 1.52-9.45 22.85 22.85 0 0 1 4.49-7.84 21 21 0 0 1 16.43-7.45 20.67 20.67 0 0 1 6.59 1 16.5 16.5 0 0 1 5.26 2.86 13.78 13.78 0 0 1 3.44 4.78 15.93 15.93 0 0 1 1.14 6.59h-9c-.19-2.58-.86-4.49-2.19-5.73z"/><path d="m160 43.18h-13.27l24.16-40.88 6.79 40.88z"/><path d="m256.67 2.39a27.2 27.2 0 0 1 5.73.61 11.37 11.37 0 0 1 4.49 2 10.14 10.14 0 0 1 3 3.63 14.3 14.3 0 0 1 1.05 5.64 13.32 13.32 0 0 1 -1.34 6 12.65 12.65 0 0 1 -3.6 4.48 13.85 13.85 0 0 1 -5 2.77 18.16 18.16 0 0 1 -6.11.95h-11.11l-3.06 14.71h-9l8.5-40.88h16.43zm-2.19 19.07a8.07 8.07 0 0 0 5.44-1.72c1.34-1.14 2-3 2-5.44a5.08 5.08 0 0 0 -.58-2.58 4.4 4.4 0 0 0 -1.43-1.53 6.23 6.23 0 0 0 -2-.76 9.29 9.29 0 0 0 -2.29-.19h-7.62l-2.5 12.22z"/><path d="m202.24 2.43 3.16 29.45h.1l15.62-29.45h12.45l-8.57 40.62h-8.4l7.51-32.32h-.11l-17.21 32.32h-6.79l-4-32.32h-.1l-6.13 32.32h-8.4l8.5-40.62z"/></g></svg>